<svg width="23" height="21" viewBox="0 0 23 21" fill="none" xmlns="http://www.w3.org/2000/svg">
<g clip-path="url(#clip0_64_7017)">
<path d="M21.3906 4.55469L19.1523 1.01172C18.9531 0.695312 18.5977 0.5 18.2188 0.5H4.28126C3.90235 0.5 3.54688 0.695312 3.34766 1.01172L1.10547 4.55469C-0.0507761 6.38281 0.972661 8.92578 3.13282 9.21875C3.28907 9.23828 3.44922 9.25 3.60547 9.25C4.62501 9.25 5.53126 8.80469 6.15235 8.11719C6.77344 8.80469 7.67969 9.25 8.69922 9.25C9.71875 9.25 10.625 8.80469 11.2461 8.11719C11.8672 8.80469 12.7734 9.25 13.793 9.25C14.8164 9.25 15.7188 8.80469 16.3398 8.11719C16.9648 8.80469 17.8672 9.25 18.8867 9.25C19.0469 9.25 19.2031 9.23828 19.3594 9.21875C21.5273 8.92969 22.5547 6.38672 21.3945 4.55469H21.3906ZM19.5195 10.457H19.5156C19.3086 10.4844 19.0977 10.5 18.8828 10.5C18.3984 10.5 17.9336 10.4258 17.5 10.293V15.5H5.00001V10.2891C4.56251 10.4258 4.09376 10.5 3.60938 10.5C3.39454 10.5 3.17969 10.4844 2.97266 10.457H2.96876C2.8086 10.4336 2.65235 10.4062 2.50001 10.3672V15.5V18C2.50001 19.3789 3.6211 20.5 5.00001 20.5H17.5C18.8789 20.5 20 19.3789 20 18V15.5V10.3672C19.8438 10.4062 19.6875 10.4375 19.5195 10.457Z" fill="#0284C7"/>
</g>
<defs>
<clipPath id="clip0_64_7017">
<path d="M0 0.5H22.5V20.5H0V0.5Z" fill="white"/>
</clipPath>
</defs>
</svg>
